ply
format ascii 1.0
comment Created by Blender 2.69 (sub 0) - www.blender.org, source file: ''
element vertex 16
property float x
property float y
property float z
property float nx
property float ny
property float nz
element face 5
property list uchar uint vertex_indices
end_header
-1.000000 -1.000000 -1.000000 -1.000000 0.000000 -0.000000
-1.000000 -1.000000 1.000000 -1.000000 0.000000 -0.000000
-1.000000 1.000000 1.000000 -1.000000 0.000000 -0.000000
-1.000000 1.000000 -1.000000 -1.000000 0.000000 -0.000000
1.000000 -0.000000 0.000000 0.447214 -0.000000 -0.894427
-1.000000 -1.000000 -1.000000 0.447214 -0.000000 -0.894427
-1.000000 1.000000 -1.000000 0.447214 -0.000000 -0.894427
1.000000 -0.000000 0.000000 0.447214 -0.000000 0.894427
-1.000000 1.000000 1.000000 0.447214 -0.000000 0.894427
-1.000000 -1.000000 1.000000 0.447214 -0.000000 0.894427
1.000000 -0.000000 0.000000 0.447213 -0.894427 0.000000
-1.000000 -1.000000 1.000000 0.447213 -0.894427 0.000000
-1.000000 -1.000000 -1.000000 0.447213 -0.894427 0.000000
1.000000 -0.000000 0.000000 0.447214 0.894427 0.000000
-1.000000 1.000000 -1.000000 0.447214 0.894427 0.000000
-1.000000 1.000000 1.000000 0.447214 0.894427 0.000000
4 0 1 2 3
3 4 5 6
3 7 8 9
3 10 11 12
3 13 14 15
