ply
format ascii 1.0
comment Created by Blender 2.69 (sub 0) - www.blender.org, source file: ''
element vertex 76
property float x
property float y
property float z
property float nx
property float ny
property float nz
element face 20
property list uchar uint vertex_indices
end_header
1.077096 1.074728 -0.915979 0.024160 0.012383 -0.999631
1.292216 -0.909629 -1.042682 0.024160 0.012383 -0.999631
-0.999339 -1.691081 -1.000425 0.024160 0.012383 -0.999631
-1.141143 1.138888 -1.076118 0.024160 0.012383 -0.999631
0.707785 0.909628 1.042682 0.123674 -0.053628 0.990873
0.922903 -1.074728 0.915979 0.123674 -0.053628 0.990873
1.887644 -0.760363 0.805036 0.123674 -0.053628 0.990873
0.955627 0.995605 1.023945 0.123674 -0.053628 0.990873
1.292216 -0.909629 -1.042682 -0.016437 -0.946924 0.321036
0.922903 -1.074728 0.915979 -0.016437 -0.946924 0.321036
-1.001170 -0.000535 1.521344 -0.016437 -0.946924 0.321036
-0.999339 -1.691081 -1.000425 -0.016437 -0.946924 0.321036
0.955627 0.995605 1.023945 -0.659695 -0.562267 0.498657
1.887644 -0.760363 0.805036 -0.659695 -0.562267 0.498657
2.416475 -0.019029 1.812500 -0.659695 -0.562267 0.498657
1.012534 1.382990 2.064081 -0.659695 -0.562267 0.498657
0.922903 -1.074728 0.915979 0.424648 -0.903102 -0.063887
1.292216 -0.909629 -1.042682 0.424648 -0.903102 -0.063887
3.110243 0.057495 -0.550087 0.424648 -0.903102 -0.063887
1.887644 -0.760363 0.805036 0.424648 -0.903102 -0.063887
1.077096 1.074728 -0.915979 -0.522242 0.852795 0.002082
0.707785 0.909628 1.042682 -0.522242 0.852795 0.002082
0.955627 0.995605 1.023945 -0.522242 0.852795 0.002082
2.178226 1.813463 -0.331179 -0.522242 0.852795 0.002082
1.292216 -0.909629 -1.042682 0.254552 0.166100 -0.952688
1.077096 1.074728 -0.915979 0.254552 0.166100 -0.952688
2.178226 1.813463 -0.331179 0.254552 0.166100 -0.952688
3.110243 0.057495 -0.550087 0.254552 0.166100 -0.952688
1.012534 1.382990 2.064081 -0.678034 -0.605598 -0.416558
2.416475 -0.019029 1.812500 -0.678034 -0.605598 -0.416558
2.355567 -0.660562 2.848966 -0.678034 -0.605598 -0.416558
0.904485 0.627799 3.333205 -0.678034 -0.605598 -0.416558
1.887644 -0.760363 0.805036 0.734733 -0.649814 0.194705
3.110243 0.057495 -0.550087 0.734733 -0.649814 0.194705
3.685447 1.372503 1.139189 0.734733 -0.649814 0.194705
2.416475 -0.019029 1.812500 0.734733 -0.649814 0.194705
2.178226 1.813463 -0.331179 -0.749394 0.611102 -0.254878
0.955627 0.995605 1.023945 -0.749394 0.611102 -0.254878
1.012534 1.382990 2.064081 -0.749394 0.611102 -0.254878
2.281507 2.774522 1.390768 -0.749394 0.611102 -0.254878
3.110243 0.057495 -0.550087 0.656403 0.560731 -0.504693
2.178226 1.813463 -0.331179 0.656403 0.560731 -0.504693
2.281507 2.774522 1.390768 0.656403 0.560731 -0.504693
3.685447 1.372503 1.139189 0.656403 0.560731 -0.504693
2.028877 2.143266 2.670553 0.396895 0.104272 0.911922
0.904485 0.627799 3.333205 0.396895 0.104272 0.911922
2.355567 -0.660562 2.848966 0.396895 0.104272 0.911922
3.479959 0.854905 2.186315 0.396895 0.104272 0.911922
2.416475 -0.019029 1.812500 0.666398 -0.684498 -0.295594
3.685447 1.372503 1.139189 0.666398 -0.684498 -0.295594
3.479959 0.854905 2.186315 0.666398 -0.684498 -0.295594
2.355567 -0.660562 2.848966 0.666398 -0.684498 -0.295594
2.281507 2.774522 1.390768 -0.675900 0.683341 0.276053
1.012534 1.382990 2.064081 -0.675900 0.683341 0.276053
0.904485 0.627799 3.333205 -0.675900 0.683341 0.276053
2.028877 2.143266 2.670553 -0.675900 0.683341 0.276053
3.685447 1.372503 1.139189 0.675587 0.599589 0.429040
2.281507 2.774522 1.390768 0.675587 0.599589 0.429040
2.028877 2.143266 2.670553 0.675587 0.599589 0.429040
3.479959 0.854905 2.186315 0.675587 0.599589 0.429040
0.707785 0.909628 1.042682 0.284535 -0.030336 0.958186
-1.001170 -0.000535 1.521344 0.284535 -0.030336 0.958186
0.922903 -1.074728 0.915979 0.284535 -0.030336 0.958186
0.707785 0.909628 1.042682 -0.182866 0.947556 0.262102
1.077096 1.074728 -0.915979 -0.182866 0.947556 0.262102
-1.141143 1.138888 -1.076118 -0.182866 0.947556 0.262102
-1.001170 -0.000535 1.521344 -0.182866 0.947556 0.262102
-1.001170 -0.000535 1.521344 -0.439961 0.813409 0.380525
-1.141143 1.138888 -1.076118 -0.439961 0.813409 0.380525
-2.641580 -0.438143 0.560142 -0.439961 0.813409 0.380525
-0.999339 -1.691081 -1.000425 -0.104087 -0.826147 0.553758
-1.001170 -0.000535 1.521344 -0.104087 -0.826147 0.553758
-2.641580 -0.438143 0.560142 -0.104087 -0.826147 0.553758
-1.141143 1.138888 -1.076118 -0.709307 -0.054340 -0.702802
-0.999339 -1.691081 -1.000425 -0.709307 -0.054340 -0.702802
-2.641580 -0.438143 0.560142 -0.709307 -0.054340 -0.702802
4 0 1 2 3
4 4 5 6 7
4 8 9 10 11
4 12 13 14 15
4 16 17 18 19
4 20 21 22 23
4 24 25 26 27
4 28 29 30 31
4 32 33 34 35
4 36 37 38 39
4 40 41 42 43
4 44 45 46 47
4 48 49 50 51
4 52 53 54 55
4 56 57 58 59
3 60 61 62
4 63 64 65 66
3 67 68 69
3 70 71 72
3 73 74 75
